{"title":"Teenage.Mutant.Ninja.Turtles.2016.720p.Hinidi.Eng.Bluray-Hon3y","uid":15881769,"size":3429912179,"categoryP":"video","categoryS":"handheld","magnet":"?xt=urn:btih:1c50cc4a85d9662ef76ad8b9d7e3c711436cbe10&amp;dn=Teenage.Mutant.Ninja.Turtles.2016.720p.Hinidi.Eng.Bluray-Hon3y&amp;tr=udp%3A%2F%2Ftracker.leechers-paradise.org%3A6969&amp;tr=udp%3A%2F%2Fzer0day.ch%3A1337&amp;tr=udp%3A%2F%2Fopen.demonii.com%3A1337&amp;tr=udp%3A%2F%2Ftracker.coppersurfer.tk%3A6969&amp;tr=udp%3A%2F%2Fexodus.desync.com%3A6969","seeders":8,"leechers":2,"uploader":"CDRiPD","files":3,"time":1474610707,"description":"Teenage.Mutant.Ninja.Turtles-Out.of.the.Shadows.2016.720p.BluRay.[Hindi(Org)DD5.1][Eng5.1]-Hon3y\r\n\r\n\r\nFormat                                   : Matroska\r\nFormat version                           : Version 4 / Version 2\r\nFile size                                : 3.19 GiB\r\nDuration                                 : 1h 52mn\r\nOverall bit rate                         : 4 079 Kbps\r\n\r\nVideo\r\nFormat                                   : AVC\r\nFormat/Info                              : Advanced Video Codec\r\nFormat profile                           :   \r\nDuration                                 : 1h 52mn\r\nBit rate                                 : 3 378 Kbps\r\nWidth                                    : 1 280 pixels\r\nHeight                                   : 536 pixels\r\nDisplay aspect ratio                     : 2.40:1\r\nFrame rate mode                          : Constant\r\nFrame rate                               : 23.976 fps\r\nBit depth                                : 8 bits\r\nScan type                                : Progressive\r\nStream size                              : 2.60 GiB (82%)\r\nWriting library                          : x264 core 148 r2638 7599210\r\n\r\nAudio #1\r\nFormat                                   : AC-3\r\nDuration                                 : 1h 52mn\r\nBit rate mode                            : Constant\r\nBit rate                                 : 448 Kbps\r\nChannel(s)                               : 6 channels\r\nChannel positions                        : Front: L C R, Side: L R, LFE\r\nSampling rate                            : 48.0 KHz\r\nBit depth                                : 16 bits\r\nCompression mode                         : Lossy\r\nStream size                              : 359 MiB (11%)\r\nLanguage                                 : Hindi\r\n\r\nAudio #2\r\nFormat                                   : AC-3\r\nDuration                                 : 1h 52mn\r\nBit rate mode                            : Constant\r\nBit rate                                 : 224 Kbps\r\nChannel(s)                               : 6 channels\r\nChannel positions                        : Front: L C R, Side: L R, LFE\r\nSampling rate                            : 48.0 KHz\r\nBit depth                                : 16 bits\r\nCompression mode                         : Lossy\r\nStream size                              : 180 MiB (5%)\r\nLanguage                                 : English\r\n\r\nSubtitle: English\r\n\r\n\r\nScreens:\r\n\r\n \nhttps://ititli.com/Xpp \nhttps://ititli.com/XpD \nhttps://ititli.com/Xpa \nhttps://ititli.com/Xpb \nhttps://ititli.com/Xpz \nhttps://ititli.com/XpI \nhttps://ititli.com/XpO \nhttps://ititli.com/XD9 \nhttps://ititli.com/XDX","torrent":{"xt":"urn:btih:1c50cc4a85d9662ef76ad8b9d7e3c711436cbe10","amp;dn":"Teenage.Mutant.Ninja.Turtles.2016.720p.Hinidi.Eng.Bluray-Hon3y","amp;tr":["udp%3A%2F%2Ftracker.leechers-paradise.org%3A6969","udp%3A%2F%2Fzer0day.ch%3A1337","udp%3A%2F%2Fopen.demonii.com%3A1337","udp%3A%2F%2Ftracker.coppersurfer.tk%3A6969","udp%3A%2F%2Fexodus.desync.com%3A6969"],"infoHash":"1c50cc4a85d9662ef76ad8b9d7e3c711436cbe10","infoHashBuffer":{"type":"Buffer","data":[28,80,204,74,133,217,102,46,247,106,216,185,215,227,199,17,67,108,190,16]},"announce":[],"urlList":[]}}